<?xml version="1.0" encoding="utf-8"?>
<!-- Generator: Adobe Illustrator 16.0.0, SVG Export Plug-In . SVG Version: 6.00 Build 0)  -->
<!DOCTYPE svg PUBLIC "-//W3C//DTD SVG 1.1//EN" "http://www.w3.org/Graphics/SVG/1.1/DTD/svg11.dtd">
<svg version="1.1" id="Layer_1" xmlns="http://www.w3.org/2000/svg" xmlns:xlink="http://www.w3.org/1999/xlink" x="0px" y="0px"
	 width="608px" height="588.8px" viewBox="336 25.6 608 588.8" enable-background="new 336 25.6 608 588.8" xml:space="preserve">
<g>
	<path fill="#F4EEFF" d="M34067.84,15360.641v-12.801c0-17.918-32-25.598-62.078-25.598c-30.082,0-62.082,8.32-62.082,25.598v12.801
		c0,11.52,4.48,23.041,12.801,31.359l32,31.359c1.918,1.922,2.559,3.84,2.559,6.4v40.959c0,2.559,1.281,4.48,3.84,5.121
		l18.559,5.758c3.199,0.641,6.402-1.277,6.402-5.119v-46.08c0-2.559,1.281-4.48,2.559-6.398l32.641-32
		C34063.359,15383.68,34067.84,15372.16,34067.84,15360.641z M34005.762,15360c-30.719,0-47.359-8.32-48-11.52l0,0
		c0.641-3.199,17.281-11.52,48-11.52s46.719,8.32,48,11.52C34052.48,15351.68,34036.48,15360,34005.762,15360z"/>
	<path fill="#F4EEFF" d="M34037.762,15425.922c-3.844,0-6.402,2.559-6.402,6.398s2.559,6.4,6.402,6.4h27.516
		c3.844,0,6.402-2.561,6.402-6.4s-2.559-6.398-6.402-6.398H34037.762z"/>
	<path fill="#F4EEFF" d="M34065.281,15447.68h-27.52c-3.84,0-6.398,2.559-6.398,6.4s2.559,6.4,6.398,6.4h27.52
		c3.84,0,6.402-2.559,6.402-6.4C34071.684,15450.242,34069.121,15447.68,34065.281,15447.68z"/>
	<path fill="#F4EEFF" d="M34065.281,15468.801h-27.52c-3.84,0-6.398,2.559-6.398,6.398c0,3.842,2.559,6.402,6.398,6.402h27.52
		c3.84,0,6.402-2.561,6.402-6.402C34071.684,15472,34069.121,15468.801,34065.281,15468.801z"/>
</g>
<path fill="#F4EEFF" d="M844.8,76.16h-63.36V51.84c0-14.72-11.52-26.24-26.239-26.24S729.6,37.12,729.6,51.84v24.32H550.4V51.84
	c0-14.72-11.521-26.24-25.601-26.24s-26.24,11.52-26.24,26.24v24.32H435.2c-54.4,0-99.2,44.8-99.2,99.84v339.84
	c0,53.76,44.8,98.561,99.2,98.561h409.6c54.4,0,99.2-44.801,99.2-99.2V175.36C944,120.32,899.2,76.16,844.8,76.16z M728.32,391.68
	l-90.88,97.28c-5.12,5.12-11.521,8.32-19.2,8.32c-7.681,0-14.08-3.2-19.2-8.32l-48-51.2c-9.6-10.24-8.96-26.88,1.28-36.479
	c10.88-9.601,26.88-8.96,37.12,1.279l28.8,30.721l71.04-76.8c9.6-10.24,26.239-10.881,37.12-1.28
	C737.28,365.44,737.92,381.44,728.32,391.68z M892.16,226.56H387.84V176c0-26.24,21.12-48,47.36-48h63.359v24.32
	c0,14.72,11.521,26.24,26.24,26.24c14.08,0,26.24-11.52,26.24-26.24V128h179.2v24.32c0,14.72,11.52,26.24,26.24,26.24
	c14.72,0,26.239-11.52,26.239-26.24V128h62.08c26.24,0,47.36,21.12,47.36,48V226.56z"/>
</svg>
