<?xml version="1.0" encoding="utf-8"?>
<!-- Generator: Adobe Illustrator 16.0.0, SVG Export Plug-In . SVG Version: 6.00 Build 0)  -->
<!DOCTYPE svg PUBLIC "-//W3C//DTD SVG 1.1//EN" "http://www.w3.org/Graphics/SVG/1.1/DTD/svg11.dtd">
<svg version="1.1" id="Layer_1" xmlns="http://www.w3.org/2000/svg" xmlns:xlink="http://www.w3.org/1999/xlink" x="0px" y="0px"
	 width="407.883px" height="292.996px" viewBox="0 0 407.883 292.996" enable-background="new 0 0 407.883 292.996"
	 xml:space="preserve">
<g>
	<path fill="#87BF63" d="M104.437,90.096c0-2.91,0-6.271,0-9.85c0-10.938,7.857-19.887,17.464-19.887h38.299
		c9.605,0,17.464,8.949,17.464,19.887c0,3.495,0,6.785,0,9.646l52.558-0.145c0-2.828,0-6.066,0-9.502
		c0-10.938,7.857-19.887,17.464-19.887h38.299c9.604,0,17.464,8.949,17.464,19.887c0,3.355,0,6.521,0,9.302l22.651-0.063
		c1.813,0,3.641,0.252,5.418,0.712V26.355c0-14.498-11.563-26.356-25.691-26.356H102.059c-14.131,0-25.691,11.86-25.691,26.356
		V90.88c1.776-0.464,3.603-0.719,5.415-0.724L104.437,90.096z"/>
	<path fill="#87BF63" d="M376.254,236.214H31.629c-3.903,0-7.099,3.194-7.099,7.1v12.232c0,3.903,0,10.292,0,14.195v12.914
		c0,3.903,0.568,7.827,1.263,8.72c0.693,0.891,7.541,1.621,11.445,1.621h21.158c3.904,0,8.359-0.329,9.903-0.73
		c1.542-0.4,2.805-5.705,2.805-9.609v-12.914c0-3.903,3.192-7.098,7.098-7.098h251.479c3.904,0,7.098,3.192,7.098,7.098v12.914
		c0,3.904,0.568,7.827,1.264,8.72c0.693,0.891,7.541,1.621,11.444,1.621h21.158c3.904,0,8.36-0.329,9.903-0.73
		c1.542-0.4,2.805-5.705,2.805-9.609v-12.914c0-3.903,0-10.292,0-14.195v-12.232C383.353,239.408,380.158,236.214,376.254,236.214z"
		/>
	<path fill="#87BF63" d="M335.892,105.452c-1.497-2.937-5.916-5.331-9.82-5.32l-244.261,0.673c-3.903,0.01-8.33,2.42-9.836,5.354
		l-41.624,81.083h347.222L335.892,105.452z"/>
	<path fill="#87BF63" d="M381.267,197.887H26.616C11.978,197.887,0,206.51,0,217.051c0,10.54,6.726,19.164,14.943,19.164
		c0.143,0,0.284,0,0.426,0c2.744-6.261,8.997-10.646,16.26-10.646h344.627c7.261,0,13.514,4.387,16.258,10.646
		c0.027,0,0.056,0,0.083,0c8.407,0,15.287-8.624,15.287-19.164C407.883,206.51,395.905,197.887,381.267,197.887z"/>
</g>
</svg>
