<?xml version="1.0" encoding="utf-8"?>
<!-- Generator: Adobe Illustrator 16.0.0, SVG Export Plug-In . SVG Version: 6.00 Build 0)  -->
<!DOCTYPE svg PUBLIC "-//W3C//DTD SVG 1.1//EN" "http://www.w3.org/Graphics/SVG/1.1/DTD/svg11.dtd">
<svg version="1.1" id="Layer_1" xmlns="http://www.w3.org/2000/svg" xmlns:xlink="http://www.w3.org/1999/xlink" x="0px" y="0px"
	 width="518.125px" height="539.813px" viewBox="380.563 50.125 518.125 539.813"
	 enable-background="new 380.563 50.125 518.125 539.813" xml:space="preserve">
<g>
	<g>
		<g>
			<path fill="#FFFFFF" d="M782.875,240.063c0,9.813,0,19.688,0,29.5c0,23.563,0,47.125,0,70.625c0,28.25,0,56.5,0,84.75
				c0,24.25,0,48.438,0,72.688c0,11.375,0.125,22.75,0,34.125c0,1.5-0.125,3.063-0.313,4.563c0.313-2.188,0.625-4.438,0.875-6.625
				c-0.375,2.813-1.125,5.438-2.125,8.063c0.813-2,1.688-4,2.5-6c-1.188,2.813-2.688,5.375-4.5,7.813
				c1.313-1.688,2.625-3.375,3.938-5.063c-1.688,2.125-3.625,4.063-5.75,5.75c1.688-1.313,3.375-2.625,5.063-3.938
				c-2.438,1.813-5,3.313-7.813,4.5c2-0.813,4-1.688,6-2.5c-2.625,1.063-5.313,1.75-8.063,2.125
				c2.188-0.313,4.438-0.625,6.625-0.875c-3.5,0.438-7.063,0.313-10.625,0.313c-6.438,0-12.938,0-19.375,0
				c-21.563,0-43.188,0-64.75,0c-26.375,0-52.75,0-79.125,0c-22.563,0-45.188,0-67.75,0c-10.563,0-21.125,0.125-31.688,0
				c-1.5,0-3-0.125-4.563-0.313c2.188,0.313,4.438,0.625,6.625,0.875c-2.813-0.375-5.438-1.125-8.063-2.125c2,0.813,4,1.688,6,2.5
				c-2.813-1.188-5.375-2.688-7.813-4.5c1.688,1.313,3.375,2.625,5.063,3.938c-2.125-1.688-4.063-3.625-5.75-5.75
				c1.313,1.688,2.625,3.375,3.938,5.063c-1.813-2.438-3.313-5-4.5-7.813c0.813,2,1.688,4,2.5,6
				c-1.063-2.625-1.75-5.313-2.125-8.063c0.313,2.188,0.625,4.438,0.875,6.625c-0.438-3.688-0.313-7.438-0.313-11.188
				c0-6.875,0-13.813,0-20.688c0-23.188,0-46.438,0-69.625c0-28.25,0-56.5,0-84.688c0-24.5,0-49.063,0-73.563c0-12,0.188-24,0-36
				c0-0.188,0-0.313,0-0.5c0-13.063-11.5-25.625-25-25c-13.563,0.625-25,11-25,25c0,6.063,0,12.125,0,18.188
				c0,15.5,0,31.063,0,46.563c0,20.75,0,41.5,0,62.25c0,21.938,0,43.813,0,65.75c0,19.063,0,38.125,0,57.188
				c0,11.938,0,23.875,0,35.813c0,2.063,0,4.125,0,6.125c0.188,20.438,11.063,39.813,28.813,50.125
				c13.25,7.75,27.125,7.875,41.625,7.875c14.625,0,29.313,0,43.938,0c20.625,0,41.25,0,61.875,0c21.875,0,43.813,0,65.688,0
				c18.125,0,36.313,0,54.438,0c9.688,0,19.375,0,29.063,0c11.063,0,22.313-2.5,31.75-8.5c17.125-10.813,27.563-29.25,27.75-49.563
				c0.063-7.063,0-14.125,0-21.188c0-16.063,0-32.125,0-48.25c0-21.125,0-42.188,0-63.313c0-21.813,0-43.625,0-65.438
				c0-18.563,0-37.063,0-55.625c0-11.188,0-22.375,0-33.563c0-1.5,0-3,0-4.5c0-13.063-11.5-25.625-25-25
				C794.313,215.688,782.875,226.063,782.875,240.063L782.875,240.063z"/>
		</g>
	</g>
	<g>
		<g>
			<path fill="#FFFFFF" d="M873.75,130c-11.875,0-23.813,0-35.688,0c-21.938,0-43.813,0-65.75,0c-11.625,0-23.25,0-34.875,0
				c-9.313,0-18.625,0-27.938,0c-20.5,0-40.938,0-61.438,0c-21.688,0-43.375,0-65.125,0c-12.688,0-25.375,0-38.063,0
				c-7.938,0-15.813,0-23.75,0c-21.5,0-42.938,0-64.438,0c-16.188,0-32.313,0-48.5,0c-0.875,0-1.75,0-2.625,0
				c-13.063,0-25.625,11.5-25,25c0.625,13.563,11,25,25,25c11.875,0,23.75,0,35.625,0c22,0,43.938,0,65.938,0
				c12,0,23.938,0,35.938,0c9,0,18,0,27.063,0c20.375,0,40.688,0,61.063,0c21.75,0,43.563,0,65.313,0c12.938,0,25.875,0,38.813,0
				c7.688,0,15.438,0,23.125,0c21.375,0,42.75,0,64.063,0c16.188,0,32.375,0,48.563,0c0.875,0,1.75,0,2.625,0
				c13.063,0,25.625-11.5,25-25C898.125,141.438,887.75,130,873.75,130L873.75,130z"/>
		</g>
	</g>
	<g>
		<g>
			<path fill="#FFFFFF" d="M566.875,155c0-18.188,0-36.375,0-54.563c0-2.875-0.125-5.813,0.125-8.688
				c-0.313,2.188-0.625,4.438-0.875,6.625c0.188-1.438,0.563-2.75,1.063-4.063c-0.813,2-1.688,4-2.5,6
				c0.688-1.563,1.5-3,2.563-4.375c-1.313,1.688-2.625,3.375-3.938,5.063c1.125-1.375,2.313-2.563,3.625-3.625
				c-1.688,1.313-3.375,2.625-5.063,3.938c1.625-1.25,3.375-2.25,5.25-3.063c-2,0.813-4,1.688-6,2.5
				c1.625-0.625,3.313-1.063,5.063-1.375c-2.188,0.313-4.438,0.625-6.625,0.875c5.75-0.688,11.75-0.188,17.5-0.188
				c12.625,0,25.25,0,37.813,0c28.688,0,57.438,0,86.125,0c7,0,14.313-0.625,21.25,0.188c-2.188-0.313-4.438-0.625-6.625-0.875
				c1.313,0.25,2.625,0.563,3.875,1.063c-2-0.813-4-1.688-6-2.5c1.438,0.625,2.75,1.375,4,2.375
				c-1.688-1.313-3.375-2.625-5.063-3.938c1,0.813,1.875,1.75,2.75,2.75c-1.313-1.688-2.625-3.375-3.938-5.063
				c0.938,1.25,1.75,2.625,2.438,4.063c-0.813-2-1.688-4-2.5-6c0.75,1.813,1.188,3.563,1.5,5.5
				c-0.313-2.188-0.625-4.438-0.875-6.625c0.75,7.313,0.125,14.938,0.125,22.313c0,11.25,0,22.5,0,33.75c0,2.688,0,5.375,0,8.063
				c0,13.063,11.5,25.625,25,25c13.563-0.625,25-11,25-25c0-20.5,0.375-41.063,0-61.563c-0.313-19.188-13.125-38.875-33-42.375
				c-4.313-0.75-8.313-1.063-12.563-1.063c-9.063,0-18.125,0-27.188,0c-28.938,0-57.938,0-86.875,0c-10.75,0-21.563,0-32.313,0
				c-2.375,0-4.75,0-7.188,0c-12.375,0.063-25.25,5-33.75,14.25c-7.5,8.188-11.813,18.063-12.125,29.188c0,0.938,0,1.875,0,2.75
				c0,5.688,0,11.313,0,17c0,13.125,0,26.188,0,39.313c0,0.813,0,1.688,0,2.5c0,13.063,11.5,25.625,25,25
				C555.438,179.375,566.875,169,566.875,155L566.875,155z"/>
		</g>
	</g>
	<g>
		<g>
			<path fill="#FFFFFF" d="M560.375,240.063c0,7.5,0,15,0,22.438c0,18,0,35.938,0,53.938c0,21.75,0,43.5,0,65.25
				c0,18.813,0,37.625,0,56.438c0,9.125-0.188,18.25,0,27.375c0,0.125,0,0.25,0,0.375c0,13.063,11.5,25.625,25,25
				c13.563-0.625,25-11,25-25c0-7.5,0-15,0-22.438c0-18,0-35.938,0-53.938c0-21.75,0-43.5,0-65.25c0-18.813,0-37.625,0-56.438
				c0-9.125,0.188-18.25,0-27.375c0-0.125,0-0.25,0-0.375c0-13.063-11.5-25.625-25-25
				C571.813,215.688,560.375,226.063,560.375,240.063L560.375,240.063z"/>
		</g>
	</g>
	<g>
		<g>
			<path fill="#FFFFFF" d="M670.313,240.063c0,7.5,0,15,0,22.438c0,18,0,35.938,0,53.938c0,21.75,0,43.5,0,65.25
				c0,18.813,0,37.625,0,56.438c0,9.125-0.188,18.25,0,27.375c0,0.125,0,0.25,0,0.375c0,13.063,11.5,25.625,25,25
				c13.563-0.625,25-11,25-25c0-7.5,0-15,0-22.438c0-18,0-35.938,0-53.938c0-21.75,0-43.5,0-65.25c0-18.813,0-37.625,0-56.438
				c0-9.125,0.188-18.25,0-27.375c0-0.125,0-0.25,0-0.375c0-13.063-11.5-25.625-25-25
				C681.75,215.688,670.313,226.063,670.313,240.063L670.313,240.063z"/>
		</g>
	</g>
</g>
</svg>
