<?xml version="1.0" encoding="utf-8"?>
<!-- Generator: Adobe Illustrator 16.0.0, SVG Export Plug-In . SVG Version: 6.00 Build 0)  -->
<!DOCTYPE svg PUBLIC "-//W3C//DTD SVG 1.1//EN" "http://www.w3.org/Graphics/SVG/1.1/DTD/svg11.dtd">
<svg version="1.1" id="Layer_1" xmlns="http://www.w3.org/2000/svg" xmlns:xlink="http://www.w3.org/1999/xlink" x="0px" y="0px"
	 width="608.276px" height="569.439px" viewBox="335.879 35.36 608.276 569.439"
	 enable-background="new 335.879 35.36 608.276 569.439" xml:space="preserve">
<g>
	<path fill="#424874" d="M807.68,467.2L708.48,416c-14.721-7.68-33.28-3.84-43.521,9.6l-35.2,45.44
		c-33.279-18.56-60.16-35.84-92.16-67.84c-32.64-32.641-50.56-60.16-67.84-92.8l44.8-35.2c13.44-10.24,17.28-28.8,9.601-43.52
		l-51.2-98.56c-4.479-8.96-12.8-15.36-22.4-17.92c-9.6-2.56-19.84-0.64-28.159,4.48l-63.36,42.24
		C343.68,172.16,334.72,190.08,336,208c1.28,16.64,3.2,40.32,7.68,56.96C362.24,336,407.04,409.6,469.12,471.68
		S604.8,578.56,675.84,597.12c16.641,4.479,40.32,6.399,56.96,7.68c1.28,0,1.92,0,3.2,0c17.28,0,33.92-8.96,43.52-23.68l40.961-64
		c5.119-8.32,7.039-18.561,4.479-28.16C823.04,479.36,816.64,471.68,807.68,467.2z"/>
	<path fill="#424874" d="M937.6,279.04l-128-220.16c-18.56-31.36-64-31.36-82.56,0l-128,220.16c-18.56,32,4.479,71.68,40.96,71.68
		h256C933.12,350.72,956.16,311.04,937.6,279.04z M749.44,109.44c0-10.24,8.319-19.2,19.199-19.2c10.24,0,19.2,8.32,19.2,19.2v102.4
		c0,10.24-8.32,19.2-19.2,19.2c-10.239,0-19.199-8.32-19.199-19.2V109.44z M768.64,308.48c-14.72,0-26.88-12.161-26.88-26.88
		c0-14.72,12.16-26.88,26.88-26.88c14.721,0,26.88,12.16,26.88,26.88C795.52,296.32,783.36,308.48,768.64,308.48z"/>
</g>
</svg>
