<?xml version="1.0" encoding="utf-8"?>
<!-- Generator: Adobe Illustrator 16.0.0, SVG Export Plug-In . SVG Version: 6.00 Build 0)  -->
<!DOCTYPE svg PUBLIC "-//W3C//DTD SVG 1.1//EN" "http://www.w3.org/Graphics/SVG/1.1/DTD/svg11.dtd">
<svg version="1.1" id="Layer_1" xmlns="http://www.w3.org/2000/svg" xmlns:xlink="http://www.w3.org/1999/xlink" x="0px" y="0px"
	 width="259.577px" height="92.992px" viewBox="0 0 259.577 92.992" enable-background="new 0 0 259.577 92.992"
	 xml:space="preserve">
<g>
	<g>
		<path fill="#424874" d="M1.071,85.729v-1.437l2.84-0.669V70.825H1.104v-1.57l2.807-0.2v-2.506c0-5.368,2.16-8.054,6.482-8.054
			c0.936,0,1.899,0.096,2.89,0.284c0.991,0.189,1.743,0.374,2.255,0.552l0.769,0.268c-0.022,0.757-0.229,1.426-0.618,2.005
			s-0.863,1.014-1.42,1.303l-3.274-2.573c-0.936,0-1.688,0.44-2.256,1.32c-0.568,0.88-0.852,2.512-0.852,4.896v2.238l5.079-0.367
			v2.405H7.888v12.798l4.444,0.669v1.437H1.071z"/>
		<path fill="#424874" d="M15.105,85.729v-1.437l2.84-0.669V71.728h-2.84v-1.437l5.346-1.27h1.47v14.602l2.84,0.669v1.437H15.105z
			 M22.489,63.942c0,0.69-0.239,1.275-0.718,1.754c-0.479,0.479-1.064,0.719-1.754,0.719s-1.275-0.239-1.754-0.719
			c-0.479-0.479-0.719-1.063-0.719-1.754s0.239-1.275,0.719-1.755c0.479-0.479,1.063-0.718,1.754-0.718s1.275,0.233,1.754,0.701
			C22.25,62.639,22.489,63.229,22.489,63.942z"/>
		<path fill="#424874" d="M26.666,85.729v-1.437l2.84-0.669V71.728h-2.84v-1.437l5.346-1.27h1.503v1.604
			c1.693-1.403,3.486-2.105,5.38-2.105c1.738,0,3.107,0.49,4.11,1.471s1.504,2.238,1.504,3.775v9.857l2.84,0.669v1.437h-8.989
			v-1.437l2.172-0.669v-9.256c0-2.271-0.969-3.408-2.907-3.408c-1.315,0-2.685,0.513-4.11,1.537v11.127l2.172,0.669v1.437H26.666z"
			/>
		<path fill="#424874" d="M49.187,77.977c0-3.008,0.924-5.335,2.773-6.984c1.849-1.647,4.087-2.473,6.716-2.473
			c0.936,0,1.749,0.101,2.439,0.301v-7.117h-2.84v-1.437l5.347-1.27h1.503v24.56h2.606v1.103l-0.535,0.435
			c-0.223,0.179-0.641,0.412-1.253,0.701c-0.613,0.29-1.208,0.435-1.788,0.435c-0.246,0-0.485-0.028-0.719-0.083
			c-0.234-0.056-0.44-0.129-0.618-0.218s-0.345-0.195-0.501-0.317c-0.156-0.122-0.284-0.239-0.384-0.351s-0.201-0.234-0.301-0.367
			c-0.1-0.134-0.173-0.245-0.217-0.335c-0.045-0.088-0.1-0.188-0.167-0.301l-0.067-0.133c-1.336,1.403-2.985,2.104-4.945,2.104
			c-1.938,0-3.598-0.707-4.979-2.122C49.877,82.693,49.187,80.649,49.187,77.977z M53.297,77.824c0,1.91,0.429,3.366,1.287,4.366
			c0.857,1,1.876,1.5,3.057,1.5c1.248,0,2.406-0.411,3.475-1.233V70.69c-0.69-0.222-1.403-0.333-2.138-0.333
			c-1.693,0-3.063,0.634-4.11,1.9C53.82,73.524,53.297,75.38,53.297,77.824z"/>
	</g>
</g>
<g>
	<g>
		<path fill="#424874" d="M149.264,85.461v-4.778h1.537l1.27,3.509c0.779,0.134,1.648,0.2,2.606,0.2
			c1.425,0,2.434-0.184,3.023-0.551c0.59-0.368,0.886-0.997,0.886-1.888c0-0.69-0.323-1.265-0.969-1.722
			c-0.646-0.456-1.76-0.996-3.342-1.62c-1.492-0.623-2.651-1.364-3.475-2.223c-0.825-0.856-1.236-1.942-1.236-3.258
			c0-1.492,0.629-2.634,1.888-3.425c1.258-0.79,2.901-1.187,4.929-1.187c1.759,0,3.353,0.213,4.778,0.636v4.544h-1.403l-1.104-3.141
			c-0.646-0.179-1.403-0.268-2.271-0.268c-1.203,0-2.044,0.184-2.523,0.552c-0.479,0.367-0.718,0.918-0.718,1.653
			c0,0.424,0.155,0.802,0.468,1.137c0.312,0.334,0.662,0.606,1.053,0.818c0.389,0.212,1.019,0.507,1.888,0.886
			c2.026,0.847,3.48,1.698,4.36,2.556c0.88,0.858,1.32,1.967,1.32,3.325c0,1.626-0.657,2.868-1.972,3.726s-3.03,1.286-5.146,1.286
			C153.017,86.229,151.067,85.974,149.264,85.461z"/>
		<path fill="#424874" d="M164.333,85.729v-1.437l2.84-0.669v-21.92h-2.84v-1.437l5.346-1.27h1.504v11.628
			c1.692-1.403,3.486-2.105,5.38-2.105c1.737,0,3.107,0.49,4.109,1.471c1.003,0.98,1.504,2.238,1.504,3.775v9.857l2.841,0.669v1.437
			h-8.989v-1.437l2.172-0.669v-9.256c0-2.271-0.969-3.408-2.906-3.408c-1.315,0-2.686,0.513-4.11,1.537v11.127l2.172,0.669v1.437
			H164.333z"/>
		<path fill="#424874" d="M186.82,77.175c0-2.45,0.702-4.506,2.105-6.165s3.341-2.49,5.813-2.49c1.292,0,2.423,0.24,3.392,0.719
			c0.97,0.479,1.738,1.142,2.306,1.988c0.568,0.847,0.986,1.793,1.253,2.84c0.268,1.048,0.401,2.184,0.401,3.409h-11.294
			c0.155,1.817,0.769,3.363,1.838,4.638s2.527,1.911,4.377,1.911c1.181,0,2.461-0.245,3.843-0.735l0.568,1.57
			c-2.072,0.913-4.043,1.37-5.915,1.37c-2.695,0-4.817-0.88-6.365-2.64C187.594,81.83,186.82,79.692,186.82,77.175z M190.797,75.805
			l7.15-0.535c-0.066-1.327-0.379-2.478-0.936-3.451s-1.348-1.461-2.372-1.461c-1.114,0-2.021,0.521-2.724,1.561
			C191.215,72.958,190.841,74.253,190.797,75.805z"/>
		<path fill="#424874" d="M204.029,85.729v-1.437l2.84-0.669v-21.92h-2.84v-1.437l5.346-1.27h1.504v24.626l2.84,0.669v1.437H204.029
			z"/>
		<path fill="#424874" d="M215.59,71.026v-1.003l4.744-4.043h1.003v3.241l4.812-0.2v2.005h-4.812v10.225
			c0,1.983,0.79,2.974,2.372,2.974c0.669,0,1.471-0.2,2.406-0.602l0.567,1.537c-1.381,0.713-2.807,1.069-4.276,1.069
			c-1.604,0-2.847-0.384-3.726-1.152c-0.881-0.769-1.32-2.1-1.32-3.993V71.026H215.59z"/>
		<path fill="#424874" d="M228.22,77.175c0-2.45,0.702-4.506,2.105-6.165s3.341-2.49,5.813-2.49c1.292,0,2.423,0.24,3.392,0.719
			c0.97,0.479,1.738,1.142,2.306,1.988c0.568,0.847,0.986,1.793,1.253,2.84c0.268,1.048,0.401,2.184,0.401,3.409h-11.294
			c0.155,1.817,0.769,3.363,1.838,4.638s2.527,1.911,4.377,1.911c1.181,0,2.461-0.245,3.843-0.735l0.568,1.57
			c-2.072,0.913-4.043,1.37-5.915,1.37c-2.695,0-4.817-0.88-6.365-2.64C228.993,81.83,228.22,79.692,228.22,77.175z M232.196,75.805
			l7.15-0.535c-0.066-1.327-0.379-2.478-0.936-3.451s-1.348-1.461-2.372-1.461c-1.114,0-2.021,0.521-2.724,1.561
			C232.614,72.958,232.24,74.253,232.196,75.805z"/>
		<path fill="#424874" d="M245.93,85.729v-1.437l2.84-0.669V71.728h-2.84v-1.437l5.346-1.27h1.471v2.071
			c1.805-1.715,3.898-2.573,6.282-2.573c0.134,0.424,0.2,0.892,0.2,1.404c0,0.824-0.101,1.56-0.301,2.205l-4.243-0.368
			c-0.669,0.313-1.315,0.691-1.938,1.137v10.726l3.509,0.669v1.437H245.93z"/>
	</g>
</g>
<path fill="#D9A577" d="M141,51.915V37.164c0-2.118-1.078-3.171-4.098-3.171H83.004c-3.021,0-4.004,1.054-4.004,3.171v8.766
	C94,43.02,120,55.087,141,51.915z"/>
<path fill="#FFFFFF" stroke="#000000" stroke-width="10" d="M81.797,52.021"/>
<path fill="#FFFFFF" stroke="#000000" stroke-width="10" d="M81.797,52.021"/>
<path fill="#333759" d="M78,49.475v37.84c0,2.532,1.891,4.678,4.833,4.678h52.503c2.943,0,5.664-2.146,5.664-4.678v-31.55
	l-7.227,8.387C117.109,64.151,98,46.085,78,49.475z"/>
<path fill="#333759" d="M63.241,49.996c0.092-0.09,0.185-0.181,0.284-0.268L104.23,14c2.659-2.334,6.98-2.334,9.64,0l40.703,35.729
	c0.103,0.087,0.194,0.178,0.286,0.268c2.187-2.195,2.479-5.726-0.286-8.152L113.87,6.115c-2.659-2.333-6.981-2.333-9.64,0
	L63.525,41.844C60.763,44.27,61.055,47.801,63.241,49.996z"/>
<path fill="#D9A577" d="M143.283,4.667c0-2.577-2.09-4.667-4.668-4.667c-1.202,0-2.302,0.456-3.129,1.204
	C134.659,0.456,133.563,0,132.361,0c-2.58,0-4.67,2.09-4.67,4.667c0,1.218,0.468,2.327,1.229,3.158l6.553,6.651l6.568-6.635
	C142.813,7.008,143.283,5.894,143.283,4.667z"/>
<path fill="#333759" d="M139.703,12.165l-4.359,4.539l-4.61-4.525c-0.341,0.214-0.733,0.844-0.733,1.588v4.34l10,8.929v-13.27
	C140,13.006,140.047,12.366,139.703,12.165z"/>
<path fill="#333759" d="M113,50.039c8,1.484,15.781,2.656,23.281,2.33c0.35-0.341,0.719-0.813,0.719-1.338v-6.039l0,0v-1.625
	c0-1.034-1.025-1.375-2.065-1.375h-9.867h-0.168h-9.894c-1.042,0-2.006,0.344-2.006,1.378v6.622l0,0V50.039z"/>
<path fill="#333759" d="M109,49.139v-4.146l0,0v-1.625c0-1.034-1.305-1.375-2.346-1.375h-9.866h-0.168h-9.894
	c-1.042,0-1.727,0.344-1.727,1.378V45.5C92,45.687,100,47.434,109,49.139z"/>
</svg>
