<?xml version="1.0" encoding="utf-8"?>
<!-- Generator: Adobe Illustrator 16.0.0, SVG Export Plug-In . SVG Version: 6.00 Build 0)  -->
<!DOCTYPE svg PUBLIC "-//W3C//DTD SVG 1.1//EN" "http://www.w3.org/Graphics/SVG/1.1/DTD/svg11.dtd">
<svg version="1.1" id="Layer_1" xmlns="http://www.w3.org/2000/svg" xmlns:xlink="http://www.w3.org/1999/xlink" x="0px" y="0px"
	 width="67.94px" height="67.939px" viewBox="91.03 2.83 67.94 67.939" enable-background="new 91.03 2.83 67.94 67.939"
	 xml:space="preserve">
<path fill="#DCD6F7" d="M154.723,62.277V35.951l1.84,1.84c0.283,0.283,0.709,0.424,0.992,0.424c0.424,0,0.707-0.142,0.99-0.424
	c0.566-0.566,0.566-1.416,0-1.982L125.99,3.255c-0.565-0.566-1.415-0.566-1.981,0L109.43,17.834v-5.096
	c0-0.849-0.566-1.415-1.415-1.415h-8.493c-0.708,0-1.415,0.708-1.415,1.415v16.418l-2.406,2.406l-4.246,4.246
	c-0.566,0.566-0.566,1.416,0,1.982s1.415,0.566,1.981,0l1.84-1.84v26.327c-2.406,0-4.246,1.84-4.246,4.246
	c0,2.264,1.84,4.246,4.246,4.246h59.447c2.405,0,4.245-1.982,4.245-4.246C158.969,64.117,157.129,62.277,154.723,62.277z
	 M125,53.502c-2.689,0-15.569-7.077-15.569-17.693c0-1.132,0.283-2.265,0.708-3.255c1.273-2.831,4.104-4.812,7.501-4.812
	c2.406,0,4.812,1.132,6.369,2.972c0.283,0.283,0.708,0.566,1.132,0.566c0.423,0,0.849-0.141,1.132-0.566
	c1.557-1.981,3.822-2.972,6.369-2.972c3.256,0,6.229,1.981,7.502,4.812c0.424,0.991,0.707,2.123,0.707,3.255
	C140.568,46.425,127.689,53.502,125,53.502z"/>
</svg>
