<?xml version="1.0" encoding="utf-8"?>
<!-- Generator: Adobe Illustrator 16.0.0, SVG Export Plug-In . SVG Version: 6.00 Build 0)  -->
<!DOCTYPE svg PUBLIC "-//W3C//DTD SVG 1.1//EN" "http://www.w3.org/Graphics/SVG/1.1/DTD/svg11.dtd">
<svg version="1.1" id="Layer_1" xmlns="http://www.w3.org/2000/svg" xmlns:xlink="http://www.w3.org/1999/xlink" x="0px" y="0px"
	 width="259.577px" height="92.992px" viewBox="0 0 259.577 92.992" enable-background="new 0 0 259.577 92.992"
	 xml:space="preserve">
<g>
	<text transform="matrix(1 0 0 1 0.002 85.7285)" fill="#333759" font-family="Nunito" font-size="40">find</text>
</g>
<text transform="matrix(1 0 0 1 147.626 85.7285)" fill="#333759" font-family="'Nunito'" font-size="40">Shelter</text>
<path fill="#A6B1E1" d="M141,51.915V37.164c0-2.118-1.078-3.171-4.098-3.171H83.004c-3.021,0-4.004,1.054-4.004,3.171v8.766
	C94,43.02,120,55.087,141,51.915z"/>
<path fill="#FFFFFF" stroke="#000000" stroke-width="10" d="M81.797,52.021"/>
<path fill="#FFFFFF" stroke="#000000" stroke-width="10" d="M81.797,52.021"/>
<path fill="#2E4D59" d="M77.505,49.475v37.84c0,2.532,2.386,4.587,5.327,4.587h52.503c2.943,0,5.328-2.055,5.328-4.587v-31.55
	l-7.306,8.387C116.694,64.151,98.005,46.085,77.505,49.475z"/>
<path fill="#2E4D59" d="M63.241,49.996c0.092-0.09,0.185-0.181,0.284-0.268L104.23,14c2.659-2.334,6.98-2.334,9.64,0l40.703,35.729
	c0.103,0.087,0.194,0.178,0.286,0.268c2.187-2.195,2.479-5.726-0.286-8.152L113.87,6.115c-2.659-2.333-6.981-2.333-9.64,0
	L63.525,41.844C60.763,44.27,61.055,47.801,63.241,49.996z"/>
<path fill="#A6B1E1" d="M143.283,4.667c0-2.577-2.09-4.667-4.668-4.667c-1.202,0-2.302,0.456-3.129,1.204
	C134.659,0.456,133.563,0,132.361,0c-2.58,0-4.67,2.09-4.67,4.667c0,1.218,0.468,2.327,1.229,3.158l6.553,6.651l6.568-6.635
	C142.813,7.008,143.283,5.894,143.283,4.667z"/>
<path fill="#2E4D59" d="M139.813,12.165l-4.415,4.539l-4.52-4.525c-0.341,0.214-0.643,0.844-0.643,1.588v4.34l9.983,8.929v-13.27
	C140.22,13.006,140.157,12.366,139.813,12.165z"/>
<path fill="#333759" d="M113.151,50.039c7.751,1.484,15.631,2.656,23.131,2.33c0.35-0.341,0.568-0.813,0.568-1.338v-6.249h-0.034
	v-1.416c0-1.034-0.842-1.874-1.882-1.874h-9.867h-0.168h-9.894c-1.042,0-1.89,0.843-1.89,1.877v6.249h0.035V50.039z"/>
<path fill="#333759" d="M108.572,49.139v-4.356h-0.035v-1.416c0-1.034-0.842-1.874-1.883-1.874h-9.866h-0.168h-9.894
	c-1.042,0-1.889,0.843-1.889,1.877V45.5C91.999,45.687,100.14,47.434,108.572,49.139z"/>
</svg>
