<?xml version="1.0" encoding="utf-8"?>
<!-- Generator: Adobe Illustrator 16.0.0, SVG Export Plug-In . SVG Version: 6.00 Build 0)  -->
<!DOCTYPE svg PUBLIC "-//W3C//DTD SVG 1.1//EN" "http://www.w3.org/Graphics/SVG/1.1/DTD/svg11.dtd">
<svg version="1.1" id="Layer_1" xmlns="http://www.w3.org/2000/svg" xmlns:xlink="http://www.w3.org/1999/xlink" x="0px" y="0px"
	 width="259.578px" height="92.992px" viewBox="0 0 259.578 92.992" enable-background="new 0 0 259.578 92.992"
	 xml:space="preserve">
<g>
	<g>
		<path fill="#DCD6F7" d="M2.071,86.729v-1.437l2.84-0.669V71.825H2.104v-1.57l2.807-0.2v-2.506c0-5.367,2.16-8.054,6.482-8.054
			c0.936,0,1.899,0.096,2.89,0.284c0.991,0.188,1.743,0.373,2.255,0.552l0.769,0.269c-0.022,0.756-0.229,1.426-0.618,2.004
			c-0.389,0.58-0.863,1.015-1.42,1.304l-3.274-2.573c-0.936,0-1.688,0.439-2.256,1.32c-0.568,0.88-0.852,2.512-0.852,4.896v2.238
			l5.079-0.367v2.405H8.888v12.798l4.444,0.669v1.438H2.071V86.729z"/>
		<path fill="#DCD6F7" d="M16.105,86.729v-1.437l2.84-0.669V72.729h-2.84v-1.438l5.346-1.27h1.47v14.602l2.84,0.669v1.437H16.105z
			 M23.489,64.941c0,0.69-0.239,1.275-0.718,1.754c-0.479,0.479-1.064,0.72-1.754,0.72s-1.275-0.239-1.754-0.72
			c-0.479-0.479-0.719-1.063-0.719-1.754c0-0.69,0.239-1.274,0.719-1.754c0.479-0.479,1.063-0.719,1.754-0.719
			s1.275,0.233,1.754,0.701C23.25,63.639,23.489,64.229,23.489,64.941z"/>
		<path fill="#DCD6F7" d="M27.667,86.729v-1.437l2.84-0.669V72.729h-2.84v-1.438l5.346-1.27h1.503v1.604
			c1.693-1.402,3.486-2.105,5.38-2.105c1.738,0,3.107,0.49,4.11,1.472s1.504,2.239,1.504,3.774v9.857l2.84,0.669v1.437h-8.989
			v-1.437l2.172-0.669v-9.256c0-2.271-0.969-3.408-2.907-3.408c-1.315,0-2.685,0.514-4.11,1.537v11.127l2.172,0.669v1.437H27.667z"
			/>
		<path fill="#DCD6F7" d="M50.188,78.977c0-3.008,0.924-5.334,2.773-6.983c1.849-1.647,4.087-2.474,6.716-2.474
			c0.936,0,1.749,0.102,2.439,0.301v-7.116h-2.84v-1.437l5.347-1.271h1.503v24.56h2.606v1.104l-0.535,0.436
			c-0.223,0.178-0.641,0.411-1.253,0.7c-0.613,0.29-1.209,0.435-1.788,0.435c-0.246,0-0.485-0.027-0.719-0.082
			c-0.234-0.057-0.44-0.129-0.618-0.219c-0.178-0.089-0.345-0.195-0.501-0.316c-0.156-0.122-0.284-0.239-0.384-0.352
			c-0.1-0.111-0.201-0.234-0.301-0.367c-0.1-0.134-0.173-0.244-0.217-0.334c-0.045-0.088-0.1-0.188-0.167-0.302l-0.067-0.133
			c-1.336,1.403-2.985,2.104-4.945,2.104c-1.938,0-3.598-0.707-4.979-2.123C50.877,83.693,50.188,81.648,50.188,78.977z
			 M54.297,78.824c0,1.91,0.429,3.365,1.287,4.365c0.857,1,1.876,1.5,3.057,1.5c1.248,0,2.406-0.41,3.475-1.232V71.689
			c-0.69-0.222-1.403-0.332-2.138-0.332c-1.693,0-3.063,0.634-4.11,1.899C54.82,74.523,54.297,76.38,54.297,78.824z"/>
	</g>
</g>
<g>
	<path fill="#DCD6F7" d="M147.264,86.461v-4.777h1.536l1.271,3.508c0.779,0.135,1.648,0.201,2.606,0.201
		c1.425,0,2.434-0.185,3.023-0.552c0.59-0.368,0.885-0.997,0.885-1.888c0-0.689-0.322-1.266-0.969-1.723
		c-0.646-0.455-1.76-0.996-3.342-1.619c-1.492-0.623-2.65-1.364-3.475-2.223c-0.825-0.856-1.236-1.943-1.236-3.259
		c0-1.491,0.629-2.634,1.889-3.425c1.258-0.79,2.9-1.188,4.928-1.188c1.76,0,3.354,0.213,4.779,0.637v4.544h-1.404l-1.104-3.142
		c-0.646-0.179-1.402-0.268-2.271-0.268c-1.202,0-2.043,0.184-2.522,0.552c-0.479,0.367-0.718,0.918-0.718,1.653
		c0,0.424,0.154,0.802,0.468,1.137c0.312,0.334,0.662,0.605,1.054,0.818c0.389,0.212,1.019,0.507,1.887,0.886
		c2.027,0.847,3.48,1.698,4.361,2.556c0.879,0.858,1.319,1.967,1.319,3.325c0,1.626-0.657,2.868-1.972,3.726
		c-1.315,0.858-3.03,1.287-5.146,1.287C151.017,87.229,149.067,86.975,147.264,86.461z"/>
	<path fill="#DCD6F7" d="M162.333,86.729v-1.437l2.84-0.669v-21.92h-2.84v-1.438l5.346-1.27h1.504v11.628
		c1.691-1.403,3.486-2.104,5.38-2.104c1.737,0,3.106,0.489,4.108,1.471c1.004,0.98,1.504,2.238,1.504,3.775v9.856l2.842,0.669v1.438
		h-8.989v-1.438l2.173-0.669v-9.256c0-2.271-0.97-3.408-2.906-3.408c-1.315,0-2.687,0.513-4.11,1.537v11.127l2.172,0.669v1.438
		H162.333L162.333,86.729z"/>
	<path fill="#DCD6F7" d="M184.82,78.175c0-2.45,0.702-4.506,2.105-6.165c1.402-1.658,3.341-2.49,5.813-2.49
		c1.292,0,2.424,0.24,3.393,0.72c0.97,0.479,1.738,1.142,2.306,1.987c0.567,0.848,0.985,1.793,1.253,2.84
		c0.268,1.049,0.4,2.185,0.4,3.41h-11.293c0.154,1.816,0.769,3.362,1.838,4.638c1.068,1.274,2.527,1.911,4.377,1.911
		c1.181,0,2.461-0.246,3.843-0.735l0.567,1.569c-2.071,0.914-4.043,1.371-5.914,1.371c-2.695,0-4.817-0.881-6.365-2.641
		C185.593,82.83,184.82,80.691,184.82,78.175z M188.796,76.805l7.15-0.535c-0.066-1.326-0.379-2.478-0.936-3.451
		c-0.557-0.973-1.348-1.461-2.372-1.461c-1.114,0-2.021,0.521-2.724,1.562C189.214,73.958,188.841,75.253,188.796,76.805z"/>
	<path fill="#DCD6F7" d="M202.029,86.729v-1.437l2.84-0.669v-21.92h-2.84v-1.438l5.346-1.27h1.504v24.626l2.84,0.669v1.438H202.029
		L202.029,86.729z"/>
	<path fill="#DCD6F7" d="M213.591,72.025v-1.002l4.744-4.043h1.002v3.24l4.813-0.199v2.004h-4.813v10.226
		c0,1.983,0.791,2.974,2.373,2.974c0.668,0,1.471-0.199,2.406-0.602l0.566,1.537c-1.381,0.713-2.807,1.068-4.275,1.068
		c-1.604,0-2.848-0.383-3.727-1.151c-0.881-0.769-1.32-2.101-1.32-3.993V72.025H213.591z"/>
	<path fill="#DCD6F7" d="M226.221,78.175c0-2.45,0.702-4.506,2.104-6.165c1.403-1.658,3.342-2.49,5.813-2.49
		c1.292,0,2.423,0.24,3.392,0.72c0.971,0.479,1.738,1.142,2.307,1.987c0.567,0.848,0.985,1.793,1.252,2.84
		c0.269,1.049,0.402,2.185,0.402,3.41h-11.295c0.155,1.816,0.77,3.362,1.838,4.638c1.069,1.274,2.527,1.911,4.377,1.911
		c1.182,0,2.461-0.246,3.844-0.735l0.567,1.569c-2.071,0.914-4.043,1.371-5.915,1.371c-2.695,0-4.816-0.881-6.365-2.641
		S226.221,80.691,226.221,78.175z M230.197,76.805l7.15-0.535c-0.066-1.326-0.379-2.478-0.936-3.451
		c-0.558-0.973-1.349-1.461-2.373-1.461c-1.113,0-2.021,0.521-2.724,1.562C230.615,73.958,230.242,75.253,230.197,76.805z"/>
	<path fill="#DCD6F7" d="M243.931,86.729v-1.437l2.84-0.669V72.729h-2.84v-1.438l5.346-1.27h1.471v2.07
		c1.805-1.715,3.898-2.572,6.282-2.572c0.134,0.424,0.2,0.892,0.2,1.403c0,0.824-0.102,1.56-0.301,2.205l-4.243-0.368
		c-0.669,0.313-1.315,0.691-1.938,1.137v10.727l3.51,0.669v1.437H243.931z"/>
</g>
<path fill="#A6B1E1" d="M139,52.915V38.164c0-2.118-1.078-3.171-4.098-3.171H81.004c-3.021,0-4.004,1.054-4.004,3.171v8.766
	C92,44.02,118,56.087,139,52.915z"/>
<path fill="#FFFFFF" stroke="#000000" stroke-width="10" d="M79.797,53.021"/>
<path fill="#FFFFFF" stroke="#000000" stroke-width="10" d="M79.797,53.021"/>
<path fill="#F4EEFF" d="M75.505,50.475v37.84c0,2.533,2.386,4.588,5.327,4.588h52.503c2.942,0,5.328-2.055,5.328-4.588V56.766
	l-7.307,8.387C114.694,65.15,96.005,47.086,75.505,50.475z"/>
<path fill="#F4EEFF" d="M61.241,50.996c0.092-0.09,0.185-0.182,0.284-0.268L102.23,15c2.659-2.334,6.98-2.334,9.64,0l40.704,35.729
	c0.102,0.088,0.193,0.179,0.285,0.269c2.188-2.195,2.479-5.726-0.285-8.152L111.87,7.115c-2.659-2.333-6.981-2.333-9.64,0
	L61.525,42.844C58.763,45.27,59.055,48.801,61.241,50.996z"/>
<path fill="#A6B1E1" d="M141.283,5.667c0-2.577-2.09-4.667-4.668-4.667c-1.201,0-2.302,0.456-3.129,1.204
	C132.66,1.456,131.563,1,130.361,1c-2.58,0-4.67,2.09-4.67,4.667c0,1.218,0.468,2.327,1.229,3.158l6.553,6.651l6.567-6.635
	C140.813,8.008,141.283,6.894,141.283,5.667z"/>
<path fill="#F4EEFF" d="M137.813,13.165l-4.415,4.539l-4.52-4.525c-0.341,0.214-0.643,0.844-0.643,1.588v4.34l9.983,8.929v-13.27
	C138.22,14.006,138.158,13.366,137.813,13.165z"/>
<path fill="#F4EEFF" d="M111.151,51.039c7.751,1.484,15.631,2.656,23.132,2.33c0.35-0.342,0.567-0.813,0.567-1.338v-6.249h-0.034
	v-1.416c0-1.034-0.842-1.874-1.882-1.874h-9.867h-0.168h-9.894c-1.042,0-1.89,0.843-1.89,1.877v6.249h0.035L111.151,51.039
	L111.151,51.039z"/>
<path fill="#F4EEFF" d="M106.572,50.139v-4.355h-0.035v-1.416c0-1.034-0.842-1.874-1.883-1.874h-9.866H94.62h-9.894
	c-1.042,0-1.889,0.843-1.889,1.877v2.13C89.999,46.687,98.14,48.434,106.572,50.139z"/>
</svg>
