<?xml version="1.0" encoding="utf-8"?>
<!-- Generator: Adobe Illustrator 16.0.0, SVG Export Plug-In . SVG Version: 6.00 Build 0)  -->
<!DOCTYPE svg PUBLIC "-//W3C//DTD SVG 1.1//EN" "http://www.w3.org/Graphics/SVG/1.1/DTD/svg11.dtd">
<svg version="1.1" id="Layer_1" xmlns="http://www.w3.org/2000/svg" xmlns:xlink="http://www.w3.org/1999/xlink" x="0px" y="0px"
	 width="188.017px" height="27.233px" viewBox="0 0 188.017 27.233" enable-background="new 0 0 188.017 27.233"
	 xml:space="preserve">
<g>
	<g>
		<path fill="#424874" d="M0,27.233v-1.437l2.84-0.669V12.33H0.033v-1.57l2.807-0.2V8.054C2.84,2.686,5,0,9.323,0
			c0.936,0,1.899,0.096,2.89,0.284c0.991,0.189,1.743,0.374,2.255,0.552l0.769,0.268c-0.022,0.757-0.229,1.426-0.618,2.005
			s-0.863,1.014-1.42,1.303L9.924,1.838c-0.936,0-1.688,0.44-2.256,1.32C7.101,4.038,6.816,5.67,6.816,8.054v2.238l5.079-0.367
			v2.405H6.816v12.798l4.444,0.669v1.437H0z"/>
		<path fill="#424874" d="M14.034,27.233v-1.437l2.84-0.669V13.232h-2.84v-1.437l5.346-1.27h1.47v14.602l2.84,0.669v1.437H14.034z
			 M21.418,5.447c0,0.69-0.239,1.275-0.718,1.754C20.22,7.681,19.636,7.92,18.945,7.92s-1.275-0.239-1.754-0.719
			c-0.479-0.479-0.719-1.063-0.719-1.754s0.239-1.275,0.719-1.755c0.479-0.479,1.063-0.718,1.754-0.718S20.22,3.208,20.7,3.676
			C21.179,4.144,21.418,4.734,21.418,5.447z"/>
		<path fill="#424874" d="M25.595,27.233v-1.437l2.84-0.669V13.232h-2.84v-1.437l5.346-1.27h1.503v1.604
			c1.693-1.403,3.486-2.105,5.38-2.105c1.738,0,3.107,0.49,4.11,1.471s1.504,2.238,1.504,3.775v9.857l2.84,0.669v1.437H37.29v-1.437
			l2.172-0.669v-9.256c0-2.271-0.969-3.408-2.907-3.408c-1.315,0-2.685,0.513-4.11,1.537v11.127l2.172,0.669v1.437H25.595z"/>
		<path fill="#424874" d="M48.116,19.481c0-3.008,0.924-5.335,2.773-6.984c1.849-1.647,4.087-2.473,6.716-2.473
			c0.936,0,1.749,0.101,2.439,0.301V3.208h-2.84V1.771l5.347-1.27h1.503v24.56h2.606v1.103l-0.535,0.435
			c-0.223,0.179-0.641,0.412-1.253,0.701c-0.613,0.29-1.208,0.435-1.788,0.435c-0.246,0-0.485-0.028-0.719-0.083
			c-0.234-0.056-0.44-0.129-0.618-0.218s-0.345-0.195-0.501-0.317c-0.156-0.122-0.284-0.239-0.384-0.351s-0.201-0.234-0.301-0.367
			c-0.1-0.134-0.173-0.245-0.217-0.335c-0.045-0.088-0.1-0.188-0.167-0.301l-0.067-0.133c-1.336,1.403-2.985,2.104-4.945,2.104
			c-1.938,0-3.598-0.707-4.979-2.122C48.806,24.198,48.116,22.154,48.116,19.481z M52.226,19.329c0,1.91,0.429,3.366,1.287,4.366
			c0.857,1,1.876,1.5,3.057,1.5c1.248,0,2.406-0.411,3.475-1.233V12.195c-0.69-0.222-1.403-0.333-2.138-0.333
			c-1.693,0-3.063,0.634-4.11,1.9C52.749,15.029,52.226,16.885,52.226,19.329z"/>
	</g>
</g>
<g>
	<g>
		<path fill="#424874" d="M78.052,26.966v-4.778h1.537l1.27,3.509c0.779,0.134,1.648,0.2,2.606,0.2c1.425,0,2.434-0.184,3.023-0.551
			c0.59-0.368,0.886-0.997,0.886-1.888c0-0.69-0.323-1.265-0.969-1.722c-0.646-0.456-1.76-0.996-3.342-1.62
			c-1.492-0.623-2.651-1.364-3.475-2.223c-0.825-0.856-1.236-1.942-1.236-3.258c0-1.492,0.629-2.634,1.888-3.425
			c1.258-0.79,2.901-1.187,4.929-1.187c1.759,0,3.353,0.213,4.778,0.636v4.544h-1.403l-1.104-3.141
			c-0.646-0.179-1.403-0.268-2.271-0.268c-1.203,0-2.044,0.184-2.523,0.552c-0.479,0.367-0.718,0.918-0.718,1.653
			c0,0.424,0.155,0.802,0.468,1.137c0.312,0.334,0.662,0.606,1.053,0.818c0.389,0.212,1.019,0.507,1.888,0.886
			c2.026,0.847,3.48,1.698,4.36,2.556c0.88,0.858,1.32,1.967,1.32,3.325c0,1.626-0.657,2.868-1.972,3.726s-3.03,1.286-5.146,1.286
			C81.805,27.734,79.855,27.479,78.052,26.966z"/>
		<path fill="#424874" d="M93.121,27.233v-1.437l2.84-0.669V3.208h-2.84V1.771l5.346-1.27h1.504V12.13
			c1.692-1.403,3.486-2.105,5.38-2.105c1.737,0,3.107,0.49,4.109,1.471c1.003,0.98,1.504,2.238,1.504,3.775v9.857l2.841,0.669v1.437
			h-8.989v-1.437l2.172-0.669v-9.256c0-2.271-0.969-3.408-2.906-3.408c-1.315,0-2.686,0.513-4.11,1.537v11.127l2.172,0.669v1.437
			H93.121z"/>
		<path fill="#424874" d="M115.608,18.68c0-2.45,0.702-4.506,2.105-6.165s3.341-2.49,5.813-2.49c1.292,0,2.423,0.24,3.392,0.719
			c0.97,0.479,1.738,1.142,2.306,1.988c0.568,0.847,0.986,1.793,1.253,2.84c0.268,1.048,0.401,2.184,0.401,3.409h-11.294
			c0.155,1.817,0.769,3.363,1.838,4.638s2.527,1.911,4.377,1.911c1.181,0,2.461-0.245,3.843-0.735l0.568,1.57
			c-2.072,0.913-4.043,1.37-5.915,1.37c-2.695,0-4.817-0.88-6.365-2.64C116.382,23.335,115.608,21.197,115.608,18.68z
			 M119.585,17.31l7.15-0.535c-0.066-1.327-0.379-2.478-0.936-3.451s-1.348-1.461-2.372-1.461c-1.114,0-2.021,0.521-2.724,1.561
			C120.003,14.463,119.629,15.758,119.585,17.31z"/>
		<path fill="#424874" d="M132.817,27.233v-1.437l2.84-0.669V3.208h-2.84V1.771l5.346-1.27h1.504v24.626l2.84,0.669v1.437H132.817z"
			/>
		<path fill="#424874" d="M144.378,12.531v-1.003l4.744-4.043h1.003v3.241l4.812-0.2v2.005h-4.812v10.225
			c0,1.983,0.79,2.974,2.372,2.974c0.669,0,1.471-0.2,2.406-0.602l0.567,1.537c-1.381,0.713-2.807,1.069-4.276,1.069
			c-1.604,0-2.847-0.384-3.726-1.152c-0.881-0.769-1.32-2.1-1.32-3.993V12.531H144.378z"/>
		<path fill="#424874" d="M157.008,18.68c0-2.45,0.702-4.506,2.105-6.165s3.341-2.49,5.813-2.49c1.292,0,2.423,0.24,3.392,0.719
			c0.97,0.479,1.738,1.142,2.306,1.988c0.568,0.847,0.986,1.793,1.253,2.84c0.268,1.048,0.401,2.184,0.401,3.409h-11.294
			c0.155,1.817,0.769,3.363,1.838,4.638s2.527,1.911,4.377,1.911c1.181,0,2.461-0.245,3.843-0.735l0.568,1.57
			c-2.072,0.913-4.043,1.37-5.915,1.37c-2.695,0-4.817-0.88-6.365-2.64C157.781,23.335,157.008,21.197,157.008,18.68z
			 M160.984,17.31l7.15-0.535c-0.066-1.327-0.379-2.478-0.936-3.451s-1.348-1.461-2.372-1.461c-1.114,0-2.021,0.521-2.724,1.561
			C161.402,14.463,161.028,15.758,160.984,17.31z"/>
		<path fill="#424874" d="M174.718,27.233v-1.437l2.84-0.669V13.232h-2.84v-1.437l5.346-1.27h1.471v2.071
			c1.805-1.715,3.898-2.573,6.282-2.573c0.134,0.424,0.2,0.892,0.2,1.404c0,0.824-0.101,1.56-0.301,2.205l-4.243-0.368
			c-0.669,0.313-1.315,0.691-1.938,1.137v10.726l3.509,0.669v1.437H174.718z"/>
	</g>
</g>
<path fill="#FFFFFF" stroke="#000000" stroke-width="10" d="M57.494,5.525"/>
<path fill="#FFFFFF" stroke="#000000" stroke-width="10" d="M57.494,5.525"/>
</svg>
