<?xml version="1.0" encoding="utf-8"?>
<!-- Generator: Adobe Illustrator 16.0.0, SVG Export Plug-In . SVG Version: 6.00 Build 0)  -->
<!DOCTYPE svg PUBLIC "-//W3C//DTD SVG 1.1//EN" "http://www.w3.org/Graphics/SVG/1.1/DTD/svg11.dtd">
<svg version="1.1" id="Layer_1" xmlns="http://www.w3.org/2000/svg" xmlns:xlink="http://www.w3.org/1999/xlink" x="0px" y="0px"
	 width="66.008px" height="58.088px" viewBox="0 0 66.008 58.088" enable-background="new 0 0 66.008 58.088" xml:space="preserve">
<g>
	<path fill="#DCD6F7" d="M27.908,40.927c1.759-1.305,2.904-3.388,2.904-5.738c0-3.938-3.205-7.146-7.146-7.146
		s-7.146,3.206-7.146,7.146c0,2.33,1.125,4.397,2.856,5.703c-0.017,0.025-0.037,0.047-0.049,0.074
		c-0.903,1.903-5.316,11.563-3.528,14.881c1.171,2.166,6.961,2.276,8.11,2.276c1.973,0,6.661-0.229,7.586-2.351
		c1.594-3.653-3.028-13.674-3.562-14.806C27.93,40.952,27.918,40.94,27.908,40.927z"/>
	<path fill="#DCD6F7" d="M46.699,40.927c1.757-1.305,2.902-3.388,2.902-5.738c0-3.939-3.205-7.146-7.146-7.146
		s-7.145,3.206-7.145,7.146c0,2.33,1.125,4.396,2.854,5.701c-0.017,0.026-0.035,0.049-0.049,0.076
		c-0.903,1.902-5.316,11.563-3.525,14.879c1.168,2.168,6.959,2.277,8.107,2.277c1.973,0,6.659-0.229,7.586-2.35
		c1.596-3.655-3.027-13.676-3.562-14.808C46.719,40.951,46.707,40.94,46.699,40.927z"/>
	<path fill="#DCD6F7" d="M65.232,33.123c0-3.125-2.541-5.668-5.668-5.668c-3.125,0-5.666,2.542-5.666,5.668
		c0,1.776,0.822,3.364,2.106,4.405c-0.78,1.66-4.017,8.854-2.628,11.425c0.93,1.722,5.111,1.854,6.374,1.854
		c1.921,0,5.252-0.25,5.981-1.927c1.197-2.743-1.875-9.662-2.648-11.323C64.391,36.519,65.232,34.919,65.232,33.123z"/>
	<path fill="#DCD6F7" d="M12.197,33.123c0-3.125-2.543-5.668-5.668-5.668c-3.127,0-5.668,2.542-5.668,5.668
		c0,1.776,0.824,3.364,2.108,4.405c-0.782,1.66-4.015,8.854-2.629,11.425c0.929,1.722,5.113,1.854,6.374,1.854
		c1.92,0,5.252-0.25,5.982-1.927c1.197-2.743-1.875-9.662-2.648-11.323C11.355,36.519,12.197,34.919,12.197,33.123z"/>
	<path fill="#DCD6F7" d="M17.654,22.882c0.109,0.075,0.229,0.116,0.353,0.141c0.015,0.004,0.026,0.005,0.041,0.007
		c0.05,0.007,0.101,0.022,0.149,0.022c0.008,0,0.014-0.002,0.02-0.002c0.006,0,0.014,0.002,0.02,0.002
		c0.051,0,0.101-0.016,0.15-0.022c0.014-0.002,0.028-0.003,0.042-0.007c0.122-0.024,0.242-0.064,0.351-0.141
		c2.637-1.818,4.399-4.564,4.492-6.999c0.047-1.215-0.354-2.228-1.125-2.852c-0.591-0.477-1.267-0.65-1.953-0.496
		c-0.819,0.181-1.489,0.797-1.977,1.405c-0.486-0.607-1.158-1.223-1.977-1.405c-0.688-0.153-1.363,0.02-1.954,0.497
		c-0.771,0.623-1.171,1.635-1.124,2.851C13.256,18.318,15.02,21.064,17.654,22.882z"/>
	<path fill="#DCD6F7" d="M49.758,12.536c-0.818,0.181-1.49,0.797-1.977,1.404c-0.486-0.607-1.156-1.223-1.977-1.404
		c-0.688-0.153-1.363,0.02-1.953,0.497c-0.771,0.624-1.172,1.635-1.125,2.852c0.092,2.434,1.854,5.181,4.49,6.999
		c0.109,0.075,0.229,0.116,0.354,0.142c0.014,0.003,0.025,0.004,0.041,0.006c0.05,0.007,0.1,0.022,0.148,0.022
		c0.008,0,0.016-0.002,0.021-0.002s0.014,0.002,0.019,0.002c0.052,0,0.101-0.016,0.151-0.022c0.014-0.002,0.025-0.003,0.041-0.006
		c0.121-0.025,0.242-0.065,0.352-0.14c2.635-1.818,4.398-4.565,4.49-7c0.047-1.215-0.352-2.229-1.124-2.852
		C51.121,12.556,50.445,12.384,49.758,12.536z"/>
	<path fill="#DCD6F7" d="M36.408,20.968c0.033-0.858-0.26-1.58-0.82-2.034c-0.443-0.358-0.979-0.491-1.502-0.375
		c-0.438,0.097-0.813,0.359-1.113,0.658c-0.303-0.299-0.676-0.561-1.115-0.658c-0.524-0.116-1.058,0.017-1.5,0.375
		c-0.562,0.454-0.854,1.176-0.82,2.033c0.06,1.588,1.191,3.367,2.882,4.533c0.038,0.026,0.08,0.038,0.12,0.058
		c0.007,0.004,0.014,0.008,0.02,0.011c0.06,0.03,0.122,0.052,0.188,0.069c0.041,0.008,0.081,0.015,0.123,0.018
		c0.031,0.003,0.062,0.014,0.093,0.014c0.005,0,0.009-0.001,0.013-0.001s0.008,0.001,0.012,0.001c0.031,0,0.062-0.011,0.093-0.014
		c0.042-0.003,0.083-0.01,0.125-0.018c0.063-0.017,0.126-0.039,0.187-0.069c0.006-0.003,0.014-0.007,0.02-0.011
		c0.039-0.02,0.082-0.031,0.119-0.058C35.217,24.335,36.348,22.558,36.408,20.968z"/>
	<path fill="#DCD6F7" d="M32.428,14.608c0.166,0.114,0.355,0.169,0.542,0.169c0.011,0,0.021-0.003,0.029-0.003
		c0.01,0,0.019,0.003,0.028,0.003c0.188,0,0.377-0.055,0.543-0.169c3.813-2.628,6.359-6.578,6.492-10.063
		c0.063-1.66-0.472-3.032-1.502-3.865c-0.767-0.619-1.636-0.842-2.517-0.647c-1.301,0.288-2.36,1.45-3.047,2.42
		c-0.686-0.971-1.745-2.132-3.047-2.42c-0.879-0.195-1.75,0.029-2.516,0.647c-1.031,0.833-1.563,2.205-1.5,3.865
		C26.068,8.031,28.615,11.98,32.428,14.608z"/>
</g>
</svg>
