<?xml version="1.0" encoding="utf-8"?>
<!-- Generator: Adobe Illustrator 16.0.0, SVG Export Plug-In . SVG Version: 6.00 Build 0)  -->
<!DOCTYPE svg PUBLIC "-//W3C//DTD SVG 1.1//EN" "http://www.w3.org/Graphics/SVG/1.1/DTD/svg11.dtd">
<svg version="1.1" id="Layer_1" xmlns="http://www.w3.org/2000/svg" xmlns:xlink="http://www.w3.org/1999/xlink" x="0px" y="0px"
	 width="52.164px" height="73.54px" viewBox="98.918 0 52.164 73.54" enable-background="new 98.918 0 52.164 73.54"
	 xml:space="preserve">
<path fill="#424874" d="M125.119,0C110.59,0,98.918,11.671,98.918,26.201c0,11.909,5.24,15.482,12.862,27.629l11.671,18.817
	c0.715,1.19,2.621,1.19,3.335,0l11.67-18.817c7.623-12.147,12.625-15.72,12.625-27.629C151.082,11.671,139.41,0,125.119,0z
	 M125,44.479c-9.559,0-17.308-7.75-17.308-17.309c0-9.56,7.749-17.309,17.308-17.309c9.56,0,17.309,7.749,17.309,17.309
	C142.309,36.73,134.56,44.479,125,44.479z"/>
</svg>
