<?xml version="1.0" encoding="utf-8"?>
<!-- Generator: Adobe Illustrator 16.0.0, SVG Export Plug-In . SVG Version: 6.00 Build 0)  -->
<!DOCTYPE svg PUBLIC "-//W3C//DTD SVG 1.1//EN" "http://www.w3.org/Graphics/SVG/1.1/DTD/svg11.dtd">
<svg version="1.1" id="Layer_1" xmlns="http://www.w3.org/2000/svg" xmlns:xlink="http://www.w3.org/1999/xlink" x="0px" y="0px"
	 width="41.076px" height="42.688px" viewBox="0 0 41.076 42.688" enable-background="new 0 0 41.076 42.688" xml:space="preserve">
<path fill="#DCD6F7" d="M3.734,42.689h33.609V0H3.734V42.689z M6.535,6.624c0-0.406,0.418-0.736,0.932-0.736h7.47
	c0.516,0,0.934,0.33,0.934,0.736v5.888c0,0.406-0.418,0.736-0.934,0.736h-7.47c-0.514,0-0.932-0.33-0.932-0.736V6.624z
	 M7.467,17.664h26.142c0.517,0,0.934,0.33,0.934,0.735c0,0.406-0.417,0.736-0.934,0.736H7.467c-0.514,0-0.932-0.33-0.932-0.736
	C6.535,17.994,6.953,17.664,7.467,17.664z M7.467,21.344h26.142c0.517,0,0.934,0.33,0.934,0.736c0,0.405-0.417,0.735-0.934,0.735
	H7.467c-0.514,0-0.932-0.33-0.932-0.735C6.535,21.674,6.953,21.344,7.467,21.344z M7.467,25.024h26.142
	c0.517,0,0.934,0.33,0.934,0.736s-0.417,0.736-0.934,0.736H7.467c-0.514,0-0.932-0.33-0.932-0.736S6.953,25.024,7.467,25.024z
	 M7.467,28.704h26.142c0.517,0,0.934,0.33,0.934,0.735c0,0.406-0.417,0.736-0.934,0.736H7.467c-0.514,0-0.932-0.33-0.932-0.736
	C6.535,29.034,6.953,28.704,7.467,28.704z M7.467,32.384h20.541c0.516,0,0.933,0.33,0.933,0.736c0,0.405-0.417,0.735-0.933,0.735
	H7.467c-0.514,0-0.932-0.33-0.932-0.735C6.535,32.714,6.953,32.384,7.467,32.384z M14.002,11.776H8.401V7.36h5.602V11.776z M0.933,0
	H2.8v42.688H0.933C0.419,42.688,0,42.358,0,41.952V0.736C0,0.33,0.419,0,0.933,0z M41.076,0.736v41.217
	c0,0.405-0.419,0.735-0.933,0.735h-1.867V0h1.867C40.657,0,41.076,0.33,41.076,0.736z"/>
</svg>
