<?xml version="1.0" encoding="utf-8"?>
<!-- Generator: Adobe Illustrator 16.0.0, SVG Export Plug-In . SVG Version: 6.00 Build 0)  -->
<!DOCTYPE svg PUBLIC "-//W3C//DTD SVG 1.1//EN" "http://www.w3.org/Graphics/SVG/1.1/DTD/svg11.dtd">
<svg version="1.1" id="Layer_1" xmlns="http://www.w3.org/2000/svg" xmlns:xlink="http://www.w3.org/1999/xlink" x="0px" y="0px"
	 width="48.988px" height="48.988px" viewBox="100.506 12.306 48.988 48.988" enable-background="new 100.506 12.306 48.988 48.988"
	 xml:space="preserve">
<g>
	<path fill="#DCD6F7" d="M118.611,16.722v18.253c0,2.439-1.977,4.416-4.416,4.416h-9.273c-2.439,0-4.416-1.977-4.416-4.416V16.722
		c0-2.438,1.977-4.416,4.416-4.416h9.273C116.634,12.306,118.611,14.283,118.611,16.722z M114.195,42.747h-9.273
		c-2.439,0-4.416,1.977-4.416,4.416v9.715c0,2.438,1.977,4.416,4.416,4.416h9.273c2.439,0,4.416-1.978,4.416-4.416v-9.715
		C118.611,44.724,116.634,42.747,114.195,42.747z M145.078,31.883h-18.694c-2.439,0-4.416,1.978-4.416,4.416v20.579
		c0,2.438,1.977,4.416,4.416,4.416h18.694c2.439,0,4.416-1.978,4.416-4.416V36.299C149.494,33.861,147.518,31.883,145.078,31.883z
		 M145.078,12.306h-18.694c-2.439,0-4.416,1.978-4.416,4.416v7.39c0,2.439,1.977,4.416,4.416,4.416h18.694
		c2.439,0,4.416-1.977,4.416-4.416v-7.39C149.494,14.283,147.518,12.306,145.078,12.306z"/>
</g>
</svg>
