<?xml version="1.0" encoding="utf-8"?>
<!-- Generator: Adobe Illustrator 16.0.0, SVG Export Plug-In . SVG Version: 6.00 Build 0)  -->
<!DOCTYPE svg PUBLIC "-//W3C//DTD SVG 1.1//EN" "http://www.w3.org/Graphics/SVG/1.1/DTD/svg11.dtd">
<svg version="1.1" id="Layer_1" xmlns="http://www.w3.org/2000/svg" xmlns:xlink="http://www.w3.org/1999/xlink" x="0px" y="0px"
	 width="55.983px" height="69.964px" viewBox="97.06 1.896 55.983 69.964" enable-background="new 97.06 1.896 55.983 69.964"
	 xml:space="preserve">
<g>
	<path fill="#424874" d="M119.143,9.504c-2.431-5.083-2.652-9.504-10.83-6.852c-3.315,1.105-5.083,3.315-7.073,5.747
		c-7.073,7.736-5.083,24.754,5.305,41.11c10.609,16.134,25.417,24.976,35.363,21.66c3.094-1.105,5.967-1.548,8.178-4.2
		c5.746-6.409,1.989-8.398-1.768-12.598c-3.316-3.758-5.969-7.736-11.715-4.42c-0.884,1.104-5.746,5.967-8.178,5.525
		c-3.536-1.769-8.62-6.852-12.156-12.377c-3.315-5.305-6.188-12.156-6.188-15.914c0.663-2.431,6.852-4.862,8.399-5.305
		C123.784,17.903,121.353,13.924,119.143,9.504z"/>
</g>
</svg>
