<?xml version="1.0" encoding="utf-8"?>
<!-- Generator: Adobe Illustrator 16.0.0, SVG Export Plug-In . SVG Version: 6.00 Build 0)  -->
<!DOCTYPE svg PUBLIC "-//W3C//DTD SVG 1.1//EN" "http://www.w3.org/Graphics/SVG/1.1/DTD/svg11.dtd">
<svg version="1.1" id="Layer_1" xmlns="http://www.w3.org/2000/svg" xmlns:xlink="http://www.w3.org/1999/xlink" x="0px" y="0px"
	 width="472.371px" height="544.857px" viewBox="403.814 47.571 472.371 544.857"
	 enable-background="new 403.814 47.571 472.371 544.857" xml:space="preserve">
<g>
	<circle fill="#BF5A5F" cx="825.325" cy="265.146" r="43.821"/>
	<path fill="#BF5A5F" d="M876.186,359.949v55.302c0,12.736-6.073,24.282-15.847,32.353v70.777c0,16.883-15.692,30.502-35.021,30.502
		c-9.625,0-18.432-3.404-24.729-8.96c-6.368-5.479-10.291-13.106-10.291-21.542v-70.777c-0.295-0.225-0.666-0.441-0.96-0.742
		c-9.178-8.071-14.88-19.322-14.88-31.616v-55.303c0-24.729,22.726-44.717,50.86-44.717c14.067,0,26.803,4.96,35.98,13.101
		C870.483,336.403,876.186,347.584,876.186,359.949z"/>
	<circle fill="#BF5A5F" cx="710.765" cy="178.528" r="43.821"/>
	<path fill="#BF5A5F" d="M761.626,273.331v55.303c0,12.735-6.074,24.281-15.847,32.352v70.778c0,16.883-15.693,30.502-35.021,30.502
		c-9.626,0-18.433-3.405-24.729-8.96c-6.368-5.479-10.292-13.107-10.292-21.542v-70.778c-0.294-0.224-0.665-0.441-0.96-0.742
		c-9.178-8.07-14.88-19.321-14.88-31.616v-55.302c0-24.729,22.727-44.717,50.861-44.717c14.066,0,26.803,4.96,35.98,13.101
		C755.93,249.786,761.626,260.966,761.626,273.331z"/>
	<circle fill="#BF5A5F" cx="595.507" cy="91.392" r="43.821"/>
	<path fill="#BF5A5F" d="M646.374,186.195v55.302c0,12.736-6.073,24.282-15.846,32.352v70.777c0,16.884-15.693,30.503-35.021,30.503
		c-9.625,0-18.432-3.405-24.729-8.96c-6.368-5.479-10.291-13.107-10.291-21.543v-70.771c-0.294-0.224-0.666-0.441-0.96-0.742
		c-9.178-8.071-14.88-19.322-14.88-31.616v-55.302c0-24.729,22.727-44.717,50.86-44.717c14.067,0,26.804,4.96,35.981,13.101
		C640.672,162.656,646.374,173.831,646.374,186.195z"/>
	<polygon fill="#BF5A5F" points="526.502,317.043 506.579,343.494 799.75,564.288 778.554,592.429 485.389,371.635 465.491,398.048 
		403.814,288.147 	"/>
</g>
</svg>
