<?xml version="1.0" encoding="utf-8"?>
<!-- Generator: Adobe Illustrator 16.0.0, SVG Export Plug-In . SVG Version: 6.00 Build 0)  -->
<!DOCTYPE svg PUBLIC "-//W3C//DTD SVG 1.1//EN" "http://www.w3.org/Graphics/SVG/1.1/DTD/svg11.dtd">
<svg version="1.1" id="Layer_1" xmlns="http://www.w3.org/2000/svg" xmlns:xlink="http://www.w3.org/1999/xlink" x="0px" y="0px"
	 width="70.908px" height="37.757px" viewBox="89.576 17.921 70.908 37.757" enable-background="new 89.576 17.921 70.908 37.757"
	 xml:space="preserve">
<title>113all</title>
<rect x="112.319" y="32.789" fill="#DCD6F7" width="31.207" height="5.888"/>
<path fill="#DCD6F7" d="M154.764,20.351c-0.25-1.406-1.473-2.43-2.9-2.429H98.224c-1.426-0.027-2.666,0.971-2.944,2.37
	l-5.704,29.094c-0.313,1.595,0.727,3.143,2.322,3.456c0.188,0.036,0.379,0.055,0.57,0.055h8.56l0.066,0.354
	c0.25,1.405,1.472,2.43,2.9,2.428h53.544c1.625,0.002,2.943-1.316,2.945-2.941c0-0.174-0.016-0.347-0.046-0.518L154.764,20.351z
	 M96.039,47.001l2.061-10.562l1.877,10.562H96.039z M106.453,49.791l-4.622-25.981h47.568l4.622,25.974L106.453,49.791z"/>
</svg>
