<?xml version="1.0" encoding="utf-8"?>
<!-- Generator: Adobe Illustrator 16.0.0, SVG Export Plug-In . SVG Version: 6.00 Build 0)  -->
<!DOCTYPE svg PUBLIC "-//W3C//DTD SVG 1.1//EN" "http://www.w3.org/Graphics/SVG/1.1/DTD/svg11.dtd">
<svg version="1.1" id="Layer_1" xmlns="http://www.w3.org/2000/svg" xmlns:xlink="http://www.w3.org/1999/xlink" x="0px" y="0px"
	 width="1066.705px" height="640px" viewBox="106.666 0 1066.705 640" enable-background="new 106.666 0 1066.705 640"
	 xml:space="preserve">
<title>reserved, stop, unavailable, card, table, sign</title>
<desc>Created with Sketch.</desc>
<g>
	<g transform="translate(-416.000000, -790.000000)">
		<path fill="#BF5A5F" d="M1457.236,878.463l130.656,405.037c4.954,15.356-2.92,31.912-17.958,37.761l-224.281,87.221
			L1457.236,878.463z M675.059,790h700.952c19.358,0,33.811,17.813,29.823,36.755l-121.905,579.047
			c-2.97,14.103-15.411,24.198-29.823,24.198H553.154c-19.357,0-33.81-17.813-29.823-36.756l121.905-579.047
			C648.205,800.095,660.646,790,675.059,790z M964.571,1277.618c92.573,0,167.618-75.045,167.618-167.618
			c0-92.574-75.045-167.619-167.618-167.619S796.952,1017.426,796.952,1110C796.952,1202.573,871.998,1277.618,964.571,1277.618z
			 M913.825,1203.846l144.592-144.592c8.177,15.091,12.821,32.376,12.821,50.746c0,58.909-47.757,106.666-106.667,106.666
			C946.201,1216.666,928.916,1212.022,913.825,1203.846L913.825,1203.846z M870.725,1160.745
			c-8.176-15.091-12.82-32.376-12.82-50.745c0-58.91,47.756-106.667,106.667-106.667c18.369,0,35.654,4.644,50.745,12.82
			L870.725,1160.745L870.725,1160.745z"/>
	</g>
</g>
</svg>
