<?xml version="1.0" encoding="utf-8"?>
<!-- Generator: Adobe Illustrator 16.0.0, SVG Export Plug-In . SVG Version: 6.00 Build 0)  -->
<!DOCTYPE svg PUBLIC "-//W3C//DTD SVG 1.1//EN" "http://www.w3.org/Graphics/SVG/1.1/DTD/svg11.dtd">
<svg version="1.1" id="Layer_1" xmlns="http://www.w3.org/2000/svg" xmlns:xlink="http://www.w3.org/1999/xlink" x="0px" y="0px"
	 width="95.045px" height="92.992px" viewBox="0 0 95.045 92.992" enable-background="new 0 0 95.045 92.992" xml:space="preserve">
<path fill="#A6B1E1" d="M79.473,52.915V38.164c0-2.118-1.078-3.171-4.099-3.171H21.477c-3.021,0-4.004,1.054-4.004,3.171v8.766
	C32.473,44.02,58.473,56.087,79.473,52.915z"/>
<path fill="#FFFFFF" stroke="#000000" stroke-width="10" d="M20.27,53.021"/>
<path fill="#FFFFFF" stroke="#000000" stroke-width="10" d="M20.27,53.021"/>
<path fill="#F4EEFF" d="M15.978,50.475v37.84c0,2.533,2.387,4.588,5.327,4.588h52.503c2.941,0,5.328-2.055,5.328-4.588V56.766
	l-7.309,8.387C55.167,65.15,36.478,47.086,15.978,50.475z"/>
<path fill="#F4EEFF" d="M1.714,50.996c0.092-0.09,0.185-0.182,0.283-0.268L42.702,15c2.66-2.334,6.98-2.334,9.641,0l40.704,35.729
	c0.102,0.088,0.192,0.181,0.284,0.271c2.188-2.194,2.479-5.726-0.284-8.152L52.343,7.115c-2.659-2.333-6.98-2.333-9.641,0
	L1.997,42.844C-0.765,45.27-0.472,48.801,1.714,50.996z"/>
<path fill="#A6B1E1" d="M81.756,5.667C81.756,3.09,79.665,1,77.088,1c-1.201,0-2.304,0.456-3.13,1.204
	C73.133,1.456,72.036,1,70.833,1c-2.579,0-4.67,2.09-4.67,4.667c0,1.218,0.469,2.327,1.229,3.158l6.554,6.651l6.566-6.635
	C81.286,8.008,81.756,6.894,81.756,5.667z"/>
<path fill="#F4EEFF" d="M78.286,13.165l-4.414,4.539l-4.521-4.525c-0.341,0.214-0.643,0.844-0.643,1.588v4.34l9.982,8.929v-13.27
	C78.694,14.006,78.631,13.366,78.286,13.165z"/>
<path fill="#F4EEFF" d="M51.624,51.039c7.75,1.484,15.631,2.656,23.132,2.33c0.35-0.342,0.565-0.813,0.565-1.338v-6.249h-0.033
	v-1.416c0-1.034-0.842-1.874-1.883-1.874h-9.867H63.37h-9.894c-1.042,0-1.89,0.843-1.89,1.877v6.249h0.035L51.624,51.039
	L51.624,51.039z"/>
<path fill="#F4EEFF" d="M47.045,50.139v-4.354H47.01v-1.416c0-1.034-0.843-1.874-1.884-1.874h-9.865h-0.168h-9.895
	c-1.041,0-1.889,0.843-1.889,1.877v2.13C30.472,46.687,38.612,48.434,47.045,50.139z"/>
</svg>
