<?xml version="1.0" encoding="utf-8"?>
<!-- Generator: Adobe Illustrator 16.0.0, SVG Export Plug-In . SVG Version: 6.00 Build 0)  -->
<!DOCTYPE svg PUBLIC "-//W3C//DTD SVG 1.1//EN" "http://www.w3.org/Graphics/SVG/1.1/DTD/svg11.dtd">
<svg version="1.1" id="Layer_1" xmlns="http://www.w3.org/2000/svg" xmlns:xlink="http://www.w3.org/1999/xlink" x="0px" y="0px"
	 width="69.92px" height="69.92px" viewBox="90.04 1.84 69.92 69.92" enable-background="new 90.04 1.84 69.92 69.92"
	 xml:space="preserve">
<g>
	<path fill="#424874" d="M3969.201,1766.474v-1.472c0-2.062-3.68-2.944-7.139-2.944s-7.14,0.957-7.14,2.944v1.472
		c0,1.325,0.516,2.649,1.472,3.606l3.681,3.606c0.221,0.221,0.294,0.441,0.294,0.735v4.711c0,0.294,0.147,0.515,0.441,0.589
		l2.135,0.662c0.368,0.073,0.736-0.147,0.736-0.589v-5.299c0-0.295,0.146-0.516,0.294-0.736l3.754-3.68
		C3968.687,1769.123,3969.201,1767.799,3969.201,1766.474z M3962.063,1766.4c-3.533,0-5.446-0.957-5.521-1.325l0,0
		c0.074-0.368,1.987-1.325,5.521-1.325c3.532,0,5.373,0.957,5.52,1.325C3967.436,1765.443,3965.596,1766.4,3962.063,1766.4z"/>
	<path fill="#424874" d="M3965.742,1773.98c-0.441,0-0.736,0.295-0.736,0.736s0.295,0.736,0.736,0.736h3.165
		c0.441,0,0.735-0.295,0.735-0.736s-0.294-0.736-0.735-0.736H3965.742z"/>
	<path fill="#424874" d="M3968.907,1776.483h-3.165c-0.441,0-0.735,0.294-0.735,0.735c0,0.442,0.294,0.736,0.735,0.736h3.165
		c0.441,0,0.736-0.294,0.736-0.736C3969.644,1776.777,3969.349,1776.483,3968.907,1776.483z"/>
	<path fill="#424874" d="M3968.907,1778.912h-3.165c-0.441,0-0.735,0.294-0.735,0.736c0,0.441,0.294,0.735,0.735,0.735h3.165
		c0.441,0,0.736-0.294,0.736-0.735C3969.644,1779.28,3969.349,1778.912,3968.907,1778.912z"/>
</g>
<path fill="#424874" d="M125,1.84c-19.283,0-34.96,15.677-34.96,34.96S105.717,71.76,125,71.76s34.96-15.677,34.96-34.96
	S144.283,1.84,125,1.84z M132.508,20.019c-2.43,0.442-4.932,0.663-7.508,0.663s-5.079-0.221-7.507-0.663
	c1.914-8.685,5.079-13.836,7.507-13.836S130.594,11.334,132.508,20.019z M132.434,7.139c5.299,1.325,10.083,4.048,13.91,7.802
	c-2.797,1.766-6.035,3.165-9.568,4.122C135.746,14.352,134.273,10.23,132.434,7.139z M115.874,34.592
	c0.074-3.753,0.368-7.212,0.883-10.304c2.723,0.441,5.446,0.736,8.317,0.736c2.797,0,5.593-0.294,8.317-0.736
	c0.441,3.091,0.736,6.55,0.883,10.304H115.874z M134.127,39.008c-0.074,3.754-0.369,7.213-0.811,10.305
	c-2.723-0.441-5.445-0.736-8.316-0.736c-2.797,0-5.594,0.295-8.317,0.736c-0.441-3.092-0.736-6.551-0.81-10.305H134.127z
	 M113.224,19.063c-3.533-0.957-6.771-2.355-9.568-4.122c3.828-3.754,8.611-6.403,13.911-7.802
	C115.727,10.23,114.254,14.352,113.224,19.063z M112.488,23.405c-0.588,3.606-0.883,7.434-0.957,11.261H94.603
	c0.442-6.109,2.723-11.776,6.256-16.413C104.098,20.461,108.146,22.227,112.488,23.405z M111.458,39.008
	c0.074,3.827,0.442,7.581,0.957,11.261c-4.343,1.178-8.317,2.87-11.703,5.152c-3.533-4.637-5.741-10.304-6.182-16.413H111.458z
	 M113.224,54.537c1.03,4.711,2.502,8.906,4.342,11.924c-5.299-1.325-10.083-4.049-13.91-7.802
	C106.453,56.893,109.691,55.494,113.224,54.537z M117.493,53.581c2.429-0.442,4.931-0.663,7.507-0.663s5.078,0.221,7.508,0.663
	c-1.914,8.685-5.079,13.837-7.508,13.837S119.406,62.266,117.493,53.581z M136.775,54.537c3.533,0.957,6.771,2.355,9.568,4.195
	c-3.827,3.754-8.611,6.403-13.91,7.802C134.273,63.369,135.746,59.248,136.775,54.537z M137.512,50.195
	c0.589-3.606,0.883-7.434,0.957-11.261h16.928c-0.441,6.108-2.723,11.776-6.256,16.413
	C145.828,53.139,141.854,51.373,137.512,50.195z M138.543,34.592c-0.074-3.827-0.442-7.581-0.957-11.261
	c4.342-1.177,8.316-2.87,11.702-5.152c3.532,4.637,5.814,10.23,6.256,16.413H138.543z"/>
</svg>
