<?xml version="1.0" encoding="utf-8"?>
<!-- Generator: Adobe Illustrator 16.0.0, SVG Export Plug-In . SVG Version: 6.00 Build 0)  -->
<!DOCTYPE svg PUBLIC "-//W3C//DTD SVG 1.1//EN" "http://www.w3.org/Graphics/SVG/1.1/DTD/svg11.dtd">
<svg version="1.1" id="Layer_1" xmlns="http://www.w3.org/2000/svg" xmlns:xlink="http://www.w3.org/1999/xlink" x="0px" y="0px"
	 width="59.67px" height="47.398px" viewBox="95.165 13.092 59.67 47.398" enable-background="new 95.165 13.092 59.67 47.398"
	 xml:space="preserve">
<title>E-Commerce</title>
<path fill="#87BF63" d="M117.012,60.49c-1.524,0.002-2.987-0.604-4.064-1.682l-0.076-0.076c-0.19-0.109-0.365-0.244-0.518-0.402
	L96.848,42.833c-2.245-2.246-2.245-5.885,0-8.131l3.887-3.887c2.245-2.246,5.886-2.246,8.132-0.001c0,0,0,0,0.001,0.001l8.083,8.091
	l24.183-24.187c2.275-2.17,5.854-2.17,8.13,0l3.888,3.884c2.245,2.246,2.246,5.886,0,8.132c0,0,0,0.001,0,0.001L121.09,58.818
	C120.008,59.896,118.54,60.498,117.012,60.49z M115.459,54.931c0.11,0.071,0.23,0.149,0.285,0.193
	c0.074,0.058,0.144,0.118,0.209,0.185l0.249,0.25c0.449,0.447,1.175,0.447,1.624,0l32.071-32.064c0.449-0.449,0.449-1.177,0-1.626
	l-3.887-3.887c-0.449-0.449-1.177-0.449-1.626,0l-25.804,25.804c-0.912,0.863-2.34,0.863-3.252,0l-9.715-9.718
	c-0.449-0.449-1.177-0.45-1.626-0.002c0,0.001-0.001,0.001-0.002,0.002L100.1,37.95c-0.449,0.449-0.449,1.177,0,1.626
	L115.459,54.931z"/>
</svg>
